<svg xmlns="http://www.w3.org/2000/svg" width="273.429" height="41.279" viewBox="0 0 273.429 41.279">
    <defs>
        <style>
            .prefix__cls-1{fill:#fff}
        </style>
    </defs>
    <g id="prefix__nutaku_logo" data-name="nutaku logo" transform="translate(-3.771 -152.475)">
        <path id="prefix__Path_13" d="M346.407 157.189l-7.789 2.03-.584 4.626h-3.892l-.669 6.279h3.827l-1.181 9.63c-.708 5.571 1.464 8.356 8.073 8.356a18.917 18.917 0 0 0 3.918-.472l.708-5.9a10.386 10.386 0 0 1-2.313.284c-2.407 0-3.021-1.038-2.785-2.88l1.133-9.017h5.847l.755-6.279H345.6z" class="prefix__cls-1" data-name="Path 13" transform="translate(-74.258 -1.062)"/>
        <path id="prefix__Path_14" d="M282.968 165.681c-.193 0-.389.006-.587.014H269.25l-.219 1.808v.091l-2.731 22.352h7.552l1.893-15.756v-.007l.136-1.137h.005l.153-1.225h4.233c2.03 0 2.5 1.181 2.266 2.927l-1.842 15.2h7.553l1.983-16.334c.568-4.534-.845-7.933-7.264-7.933z" class="prefix__cls-1" data-name="Path 14" transform="translate(-59.13 -2.974)"/>
        <path id="prefix__Path_15" d="M309.221 180.132c-.379 2.274 1.718 4.508 6.786 4.2a34.777 34.777 0 0 0 7.246-1.02s-.541 5.294-.634 5.757a41.983 41.983 0 0 1-12.855.578c-4.365-.611-8.883-5.065-8.017-12.189 1.042-8.575 5.023-12.322 13.172-12.322 7.722 0 10.314 2.4 9.7 7.37s-4.026 7.628-11.749 7.628zm4.264-5.159c1.658 0 3.534-.122 4.206-1.4 1.02-2.063-.185-3.153-1.9-3.245a5.428 5.428 0 0 0-2.85.37 4.789 4.789 0 0 0-2.851 4.264z" class="prefix__cls-1" data-name="Path 15" transform="translate(-67.089 -2.851)"/>
        <path id="prefix__Path_16" d="M255.806 195.463h-2.9a1.7 1.7 0 0 1-1.715-1.855l.186-2.472a2.04 2.04 0 0 1 1.994-1.855h2.9a1.7 1.7 0 0 1 1.715 1.855l-.186 2.472a2.04 2.04 0 0 1-1.994 1.855z" class="prefix__cls-1" data-name="Path 16" transform="translate(-55.726 -8.29)"/>
        <g id="prefix__Group_7" data-name="Group 7" transform="translate(3.771 152.475)">
            <g id="prefix__Group_5" data-name="Group 5" transform="translate(51.478)">
                <path id="prefix__Path_17" d="M147.675 158.077l-7.518 1.959-.563 4.464h-3.758l-.645 6.06h3.69l-1.139 9.294c-.683 5.376 1.412 8.065 7.791 8.065a18.216 18.216 0 0 0 3.782-.456l.683-5.7a10.016 10.016 0 0 1-2.232.273c-2.324 0-2.916-1-2.688-2.779l1.093-8.7h5.65l.729-6.06h-5.65z" class="prefix__cls-1" data-name="Path 17" transform="translate(-84.849 -153.737)"/>
                <path id="prefix__Path_18" d="M214.9 163.866h-9.112l-6.743 7.29 2.323-18.68h-7.062l-4.192 34.171h7.062l.866-7.062 1.64-1.549 4.237 8.611h8.881l-7.882-13.486z" class="prefix__cls-1" data-name="Path 18" transform="translate(-97.219 -152.475)"/>
                <path id="prefix__Path_19" d="M86.3 166.392c-.186 0-.375.005-.566.013H73.057l-.212 1.746v.088l-2.631 21.573H77.5l1.83-15.212.132-1.1h.005l.147-1.182H83.7c1.959 0 2.415 1.139 2.187 2.825l-1.777 14.668h7.29l1.914-15.764c.546-4.375-.821-7.655-7.014-7.655z" class="prefix__cls-1" data-name="Path 19" transform="translate(-70.214 -155.61)"/>
                <path id="prefix__Path_20" d="M119.147 166.368l-2 16.311-.015.009-.15 1.175h-4.026c-1.959 0-2.415-1.139-2.233-2.825l1.822-14.671h-7.29l-1.959 15.764c-.452 3.947.618 7 5.382 7.561.358.062.938.094.938.094h13.992l.271-2.249-.02-.012 2.581-21.158z" class="prefix__cls-1" data-name="Path 20" transform="translate(-77.643 -155.604)"/>
                <path id="prefix__Path_21" d="M244.986 166.368H237.7l-2.005 16.311-.146 1.182H231.5c-1.959 0-2.415-1.139-2.232-2.825l1.822-14.671h-7.29l-1.959 15.764c-.449 3.922.605 6.963 5.292 7.55.346.043 1.107.1 1.107.1h13.89l.322-2.637z" class="prefix__cls-1" data-name="Path 21" transform="translate(-104.343 -155.604)"/>
                <path id="prefix__Path_22" d="M181.592 166.183h-7.179l-.1.7a10.451 10.451 0 0 0-5.617-1.337c-5.923 0-9.295 3.645-10.342 12.028-1 8.383 1.458 12.028 7.38 12.028h13.007l.075-.62-.005-.018zm-8.881 12.834l-.459 3.7-.019.012-.122.944h-3.185c-3.372 0-3.827-2.187-3.372-6.105.5-3.872 1.5-6.105 4.875-6.105a5.6 5.6 0 0 1 3.1.957l-.817 6.592z" class="prefix__cls-1" data-name="Path 22" transform="translate(-90.017 -155.419)"/>
            </g>
            <g id="prefix__Group_6" data-name="Group 6" transform="translate(0 2.755)">
                <path id="prefix__Path_23" d="M42.682 194.908l-.015-.02.015.02z" class="prefix__cls-1" data-name="Path 23" transform="translate(-12.531 -164.783)"/>
                <path id="prefix__Path_24" d="M45.955 196l-.015-.02.015.02z" class="prefix__cls-1" data-name="Path 24" transform="translate(-13.269 -165.028)"/>
                <path id="prefix__Path_25" d="M34.724 165.389A5.742 5.742 0 0 0 34.9 162a5.864 5.864 0 0 0-2.215-3.115 13.2 13.2 0 0 0-2.022-1.271 17.718 17.718 0 0 0-8.246-1.572 19.3 19.3 0 0 0-12.674 5.318 19.8 19.8 0 0 0-5.96 13.272 21.673 21.673 0 0 0 .705 5.884 1.724 1.724 0 0 0 3.313.06c.009-.025 2.644-6.869 4.149-10.712a8.438 8.438 0 0 1 1.206-2.076 5.347 5.347 0 0 1 .665-.639 5.778 5.778 0 0 1 6.8-.365 5.655 5.655 0 0 1 1.337 1.237c.036.046.607.9.607.9l3.487 5.563 1.75 2.792.009.015a1.39 1.39 0 0 0 2.483-.244z" class="prefix__cls-1" data-name="Path 25" transform="translate(-3.771 -156.031)"/>
                <path id="prefix__Path_26" d="M45.862 194.913l-.015-.02.015.02z" class="prefix__cls-1" data-name="Path 26" transform="translate(-13.248 -164.784)"/>
                <path id="prefix__Path_27" d="M43.834 171.941a1.783 1.783 0 0 0-3.376.113l-.24.793-3.27 10.779a16.018 16.018 0 0 1-.663 1.868 5.037 5.037 0 0 1-2.267 2.187 5.167 5.167 0 0 1-4.708-.12 13.518 13.518 0 0 1-2.508-2.608l-.966-1.323-1.943-2.658-1.754-2.4a1.326 1.326 0 0 0-2.335.388c-.8 2.562-1.56 4.962-2.236 7.116l-1.473 4.687a6.2 6.2 0 0 0-.1 2.723 4.665 4.665 0 0 0 2.623 3.077 22.029 22.029 0 0 0 7.883 1.308 19.257 19.257 0 0 0 17.336-25.931z" class="prefix__cls-1" data-name="Path 27" transform="translate(-6.499 -159.354)"/>
            </g>
        </g>
    </g>
</svg>
